# xmcd
#
# Track frame offsets:
#	150
#	20286
#	40386
#	59269
#
# Disc length: 1044 seconds
#
# Revision: 0
# Processed by: cddbd v1.5.2PL0 Copyright (c) Steve Scherf et al.
# Submitted via: audiograbber 1.83.01
#
DISCID=2b041204
DTITLE=Jimmy Barnes - Bird On A Wire
DYEAR=2005
DGENRE=Country
TTITLE0=Jimmy Barnes with Troy Cassar-Daley featuring Bella - Bird On A Wire
TTITLE1=Jimmy Barnes with Elly-May Barnes - I'll Be There
TTITLE2=Jimmy Barnes with Troy Cassar-Daley - Bird On A Wire (Alternate Mix)
TTITLE3=Jimmy Barnes with Smokey Dawson - Cold Cold Heart
EXTD=
EXTT0=
EXTT1=
EXTT2=
EXTT3=
PLAYORDER=
